<svg width="513" height="126" viewBox="0 0 513 126" fill="none" xmlns="http://www.w3.org/2000/svg">
<path d="M52.541 79.0969C50.4156 79.139 48.0487 79.1859 45.4403 79.2376C42.9285 79.2874 40.5577 79.1411 38.3281 78.7986C36.9717 78.6322 36.2821 77.9694 36.2591 76.8101C36.2304 75.3609 37.1338 74.6182 38.9694 74.5818C39.6456 74.5684 40.3228 74.6033 41.001 74.6865C41.6792 74.7697 42.3564 74.8046 43.0327 74.7912C44.7735 74.8534 46.5144 74.9156 48.2553 74.9777C49.9942 74.9433 51.6849 74.9098 53.3272 74.8772C59.3169 74.7585 65.6845 74.1975 72.4299 73.194C79.1752 72.1905 85.7159 70.6112 92.0519 68.4561C98.3878 66.301 103.984 63.3874 108.84 59.7153C113.694 55.9465 117.226 51.2858 119.436 45.7332C119.987 44.2726 120.392 42.7665 120.651 41.2151C121.007 39.6617 121.169 38.1121 121.139 36.5664C121.045 31.8326 119.614 27.8984 116.846 24.7639C114.078 21.6294 110.502 19.1875 106.118 17.4381C101.732 15.592 97.0682 14.3314 92.1258 13.6561C87.1816 12.8843 82.4874 12.5424 78.0435 12.6304L75.435 12.6821C70.1254 12.9806 64.3858 13.5292 58.2162 14.328C52.1414 15.0283 46.0752 16.1632 40.0175 17.733C33.9599 19.3027 28.3485 21.4434 23.1833 24.1552C18.0182 26.867 13.7851 30.2852 10.4842 34.4097C8.97294 36.1793 7.75531 38.1364 6.83134 40.2809C5.90737 42.4254 5.46739 44.6087 5.51142 46.8307C5.52482 47.507 5.63483 48.1813 5.84144 48.8537C6.14467 49.5242 6.30298 50.1976 6.31638 50.8739C6.32786 51.4535 6.09591 51.9414 5.62053 52.3374C5.14514 52.7334 4.56932 52.9381 3.89306 52.9515C2.44393 52.9802 1.56106 52.3212 1.24443 50.9744C0.925894 49.531 0.758969 48.4229 0.743655 47.65C0.693887 45.1382 1.12812 42.6651 2.04635 40.2307C3.06119 37.7945 4.32138 35.5466 5.82692 33.4872C9.30764 28.6826 13.7234 24.7292 19.0741 21.6272C24.5214 18.5232 30.4652 16.0859 36.9055 14.3153C43.3457 12.5448 49.8921 11.2553 56.5447 10.447C63.1954 9.54201 69.4653 8.93455 75.3546 8.62457L77.8181 8.57576C82.9384 8.47431 88.2614 8.85207 93.7872 9.70905C99.3131 10.566 104.465 12.0586 109.243 14.1868C114.117 16.3131 118.088 19.1821 121.156 22.7939C124.223 26.4057 125.811 30.9166 125.918 36.3267C125.991 39.9978 125.336 43.5384 123.954 46.9484C121.561 52.9879 117.747 58.0408 112.512 62.107C107.277 66.1732 101.253 69.4336 94.4394 71.8881C87.6261 74.3426 80.5579 76.1256 73.2348 77.2372C65.9117 78.3488 59.0138 78.9687 52.541 79.0969ZM23.1256 116.357C21.29 116.393 19.8246 115.601 18.7294 113.98C17.6342 112.358 16.7766 110.539 16.1568 108.522C15.6316 106.406 15.3585 104.817 15.3375 103.754C15.3221 102.981 15.3551 102.207 15.4364 101.433C15.6143 100.656 15.7922 99.8792 15.9701 99.1025C18.2265 91.0361 21.3523 82.9525 25.3476 74.8517C29.3429 66.7509 33.9226 58.8801 39.0868 51.2394C44.249 43.502 49.616 36.3405 55.1876 29.7548C56.2273 28.5744 57.2671 27.3941 58.3068 26.2137C59.4431 25.0315 60.5804 23.8975 61.7186 22.8118C62.5728 22.0217 63.4753 21.2307 64.426 20.4387C65.4734 19.6447 66.2783 18.8073 66.8407 17.9263C67.121 17.4376 67.4041 17.0937 67.6901 16.8947C67.9742 16.5992 68.4544 16.4447 69.1306 16.4313C69.7103 16.4198 70.2455 16.6025 70.7362 16.9793C71.2269 17.3562 71.478 17.8345 71.4894 18.4141C71.4952 18.7039 71.4517 18.9464 71.3589 19.1415C71.2699 19.5299 70.7037 20.2176 69.6601 21.2048C68.6166 22.1919 67.5247 23.18 66.3846 24.1691C65.341 25.1562 64.6308 25.8951 64.2539 26.3858C63.3051 27.2745 62.3572 28.2114 61.4102 29.1966C60.5599 30.1799 59.7579 31.1623 59.0041 32.1437C53.5272 38.6308 48.254 45.6455 43.1845 53.1878C38.2097 60.6315 33.772 68.3545 29.8715 76.3567C25.9689 84.2624 22.8886 92.2001 20.6303 100.17C20.1798 101.822 19.968 103.324 19.9948 104.677C20.0484 107.382 20.5195 109.209 21.4081 110.157C22.3952 111.201 23.3264 111.859 24.2016 112.132C25.0788 112.501 25.5259 113.12 25.5432 113.99C25.5546 114.569 25.3237 115.105 24.8502 115.598C24.4733 116.089 23.8985 116.342 23.1256 116.357ZM135.295 109.93C132.687 109.982 130.596 109.347 129.024 108.025C127.451 106.703 126.26 105.084 125.448 103.167C124.732 101.152 124.356 99.2745 124.322 97.5355C124.276 95.2169 124.66 92.6482 125.474 89.8293C126.286 86.9138 127.02 84.918 127.675 83.8419C127.669 83.5521 127.615 83.2632 127.513 82.9753C127.505 82.5889 127.498 82.2508 127.493 81.9609C127.441 79.3525 127.774 76.6398 128.491 73.8229C129.296 70.5209 130.782 67.4955 132.95 64.7464C135.117 61.9007 137.825 59.5759 141.075 57.7718C144.422 55.9659 148.076 55.0237 152.037 54.9452C156.674 54.8533 160.274 56.0384 162.835 58.5004C165.395 60.8659 166.714 64.0291 166.793 67.99C166.902 73.4967 165.981 78.2506 164.031 82.2518C162.177 86.251 160.176 90.1082 158.026 93.8233C157.655 94.6039 157.33 95.2385 157.049 95.7273C156.769 96.2161 157.064 96.4519 157.933 96.4346C160.735 96.3791 163.465 95.1653 166.124 92.7931C168.783 90.4209 172.126 85.9572 176.152 79.4022C176.432 78.9134 176.714 78.5212 176.998 78.2256C177.282 77.9301 177.714 77.7765 178.294 77.7651L178.584 77.7593C179.646 77.7383 180.287 78.3538 180.505 79.6059C180.511 79.8957 180.421 80.2357 180.235 80.626C177.904 84.9246 175.513 88.6445 173.063 91.7858C170.709 94.9251 167.858 97.3494 164.509 99.0588C161.158 100.672 156.924 101.577 151.805 101.775C149.815 103.747 147.338 105.584 144.376 107.286C141.51 108.986 138.483 109.867 135.295 109.93ZM148.943 96.3228L150.392 96.2941C152.373 93.8387 154.25 91.0471 156.025 87.9192C157.896 84.7895 159.378 81.5708 160.472 78.2631C161.565 74.8589 162.081 71.6593 162.022 68.6644C161.966 65.8628 161.195 63.5102 159.708 61.6068C158.218 59.6067 155.686 58.6421 152.112 58.7129C149.697 58.7608 147.34 59.339 145.043 60.4476C142.84 61.4578 140.932 62.7036 139.318 64.1853L139.764 64.7564C139.955 64.6559 140.244 64.6019 140.631 64.5942C141.21 64.5827 141.747 64.8137 142.239 65.2872C142.73 65.6641 142.98 66.094 142.99 66.5771C142.995 66.8669 142.952 67.1094 142.859 67.3045C142.766 67.4996 142.625 67.6957 142.436 67.8928C140.841 70.3405 139.292 72.6424 137.789 74.7984C136.285 76.9544 134.884 79.3983 133.585 82.1302C133.308 82.8122 132.984 83.4951 132.611 84.1791C133.454 87.7383 135.301 90.6977 138.15 93.0574C141.095 95.3186 144.692 96.4071 148.943 96.3228ZM136.084 105.856C138.017 105.817 139.937 105.199 141.846 104.002C143.754 102.708 145.373 101.516 146.705 100.426C139.347 99.7989 133.873 96.6698 130.282 91.0388C130.199 91.7169 130.026 92.7352 129.763 94.0934C129.5 95.4517 129.382 96.8071 129.408 98.1596C129.447 100.092 129.917 101.87 130.819 103.496C131.721 105.121 133.476 105.907 136.084 105.856ZM201.9 107.306C200.064 107.342 198.459 106.794 197.083 105.662C195.804 104.527 195.14 102.704 195.09 100.192C195.05 98.1637 195.395 96.079 196.126 93.9383C196.855 91.701 197.545 89.9477 198.197 88.6783C199.681 85.5562 201.267 82.6738 202.954 80.0309C204.64 77.2914 205.905 75.3334 206.752 74.1568C205.015 74.2879 202.929 73.8943 200.495 72.9761C198.157 72.0559 196.49 70.8326 195.493 69.306C194.274 71.1664 192.546 74.1967 190.309 78.3968C188.071 82.5003 185.21 86.8578 181.725 91.4692C181.161 92.2535 180.492 92.6534 179.719 92.6687C178.27 92.6974 177.533 92.0838 177.508 90.8279C177.499 90.3448 177.635 89.9072 177.917 89.5151C179.326 87.4576 181.062 84.8137 183.124 81.5835C185.281 78.2548 187.339 74.8314 189.299 71.3133C191.354 67.6967 192.981 64.4751 194.182 61.6486C194.551 60.7714 194.919 59.846 195.286 58.8723C195.75 57.8966 196.167 56.9702 196.536 56.0931C196.909 55.4092 197.429 54.819 198.096 54.3225C198.76 53.7295 199.528 53.4244 200.397 53.4071C201.17 53.3918 201.95 53.7146 202.736 54.3756C203.52 54.9399 203.92 55.6085 203.935 56.3814C203.953 57.2509 203.636 58.3686 202.987 59.7345C202.432 61.0019 201.83 62.3185 201.181 63.6844C200.531 65.0504 200.217 66.2647 200.238 67.3274C200.255 68.1968 200.991 68.7621 202.446 69.0232C203.901 69.2844 204.967 69.4082 205.643 69.3948C208.251 69.3431 210.414 68.7687 212.132 67.6716C213.85 66.5744 215.047 66.0191 215.724 66.0057C216.303 65.9943 216.791 66.2262 217.187 66.7016C217.678 67.0785 217.928 67.5084 217.937 67.9915C217.951 68.6677 217.672 69.2531 217.102 69.7476C215.775 71.0303 214.216 72.8492 212.427 75.2042C210.637 77.5591 208.851 80.1073 207.069 82.8487C205.287 85.5901 203.746 88.2785 202.445 90.9137C202.078 91.8874 201.525 93.2514 200.786 95.0057C200.145 96.758 199.839 98.4071 199.87 99.9528C199.921 102.561 200.865 103.847 202.7 103.811C203.473 103.796 204.337 103.489 205.292 102.89C206.343 102.289 207.344 101.593 208.295 100.801C210.571 98.6294 212.559 96.5121 214.258 94.4488C216.051 92.2871 217.84 89.8838 219.624 87.239C221.407 84.5942 223.471 81.4123 225.813 77.6933C226.186 77.0094 226.856 76.6579 227.822 76.6388C229.078 76.6139 229.717 77.1811 229.74 78.3404C229.752 78.92 229.478 79.747 228.919 80.8211C227.615 83.2631 225.88 85.9553 223.716 88.8976C221.648 91.8379 219.48 94.6353 217.213 97.2897C215.041 99.8455 213.099 101.817 211.387 103.204C208.347 105.874 205.185 107.241 201.9 107.306ZM239.966 109.741C238.034 109.779 236.573 109.18 235.582 107.943C234.593 106.803 233.937 105.415 233.615 103.778C233.292 102.142 233.119 100.695 233.094 99.4395C233.015 95.4786 233.652 91.0202 235.003 86.0645C236.355 81.1087 237.948 76.1482 239.782 71.1829C241.713 66.2156 243.462 61.7836 245.028 57.8867C243.291 58.0178 241.364 58.3459 239.248 58.871C237.229 59.3943 235.398 59.6722 233.756 59.7047C232.404 59.7315 231.716 59.1652 231.693 58.0059C231.66 56.3636 232.511 55.3803 234.244 55.056C236.36 54.5309 238.526 54.1014 240.742 53.7675C242.958 53.4337 245.127 53.1491 247.249 52.9137C247.807 51.8396 248.596 50.1809 249.615 47.9379C250.633 45.6948 251.794 43.304 253.097 40.7654C254.398 38.1302 255.656 35.7857 256.872 33.732C258.182 31.5799 259.263 30.0604 260.116 29.1737C260.684 28.5826 261.306 28.2803 261.982 28.2669C262.658 28.2535 263.242 28.4352 263.733 28.8121C264.223 29.189 264.474 29.6672 264.486 30.2469C264.492 30.5367 264.354 30.926 264.074 31.4148C261.718 34.4575 259.755 37.7824 258.183 41.3895C256.612 44.9965 255.038 48.507 253.463 51.9208C255.198 51.6931 257.03 51.4635 258.958 51.232C260.886 51.0005 262.768 50.8666 264.604 50.8302C265.183 50.8187 265.717 50.9048 266.204 51.0885C266.787 51.2702 267.085 51.6992 267.099 52.3755C267.11 52.9551 266.83 53.4439 266.258 53.8418C265.783 54.2378 265.209 54.5391 264.536 54.7457C262.419 55.1743 260.203 55.5564 257.891 55.8922C255.672 56.1295 253.455 56.415 251.239 56.7489C250.04 59.672 248.655 62.9371 247.084 66.5441C245.512 70.1512 243.992 73.9022 242.523 77.7972C241.148 81.5936 240.014 85.2887 239.118 88.8823C238.223 92.476 237.804 95.7219 237.861 98.6202C237.871 99.1032 237.887 99.9244 237.91 101.084C238.028 102.144 238.289 103.106 238.692 103.968C239.096 104.829 239.684 105.253 240.457 105.237C242.099 105.205 243.25 104.747 243.909 103.864C244.568 102.981 245.332 102.531 246.202 102.514C246.878 102.501 247.462 102.682 247.952 103.059C248.54 103.434 248.839 103.912 248.851 104.491C248.868 105.361 248.304 106.193 247.16 106.989C246.113 107.783 244.87 108.436 243.43 108.948C241.99 109.459 240.836 109.724 239.966 109.741ZM275.143 120.352C273.5 120.384 272.664 119.628 272.633 118.082C272.616 117.213 272.743 116.292 273.013 115.32C273.284 114.348 273.459 113.427 273.538 112.555C274.409 107.706 275.558 102.271 276.985 96.2504C278.506 90.1315 280.223 84.1054 282.135 78.1721C284.045 72.1421 286.067 66.8832 288.201 62.3952C287.334 62.509 286.083 62.7754 284.448 63.1944C282.811 63.5167 281.324 64.0294 279.984 64.7325C278.643 65.339 277.983 66.1735 278.004 67.2362C278.018 67.9125 277.498 68.5027 276.445 69.0068C275.39 69.4142 274.476 69.6256 273.703 69.641C272.254 69.6697 271.515 68.9595 271.486 67.5103C271.458 66.0612 272.109 64.7919 273.44 63.7024C274.868 62.611 276.589 61.6588 278.603 60.8457C280.711 59.9341 282.774 59.2167 284.794 58.6935C286.91 58.1683 288.593 57.7967 289.846 57.5786C291.419 54.0681 293.273 50.0689 295.407 45.5809C297.635 40.9944 300.203 36.4494 303.11 31.9461C306.015 27.3461 309.22 23.2718 312.726 19.7231C316.326 16.0758 320.285 13.4846 324.604 11.9493C326.235 11.3371 327.968 11.0128 329.804 10.9765C333.475 10.9037 336.003 11.6751 337.388 13.2907C338.868 14.8077 339.627 16.5323 339.665 18.4645C339.701 20.3 339.252 22.0003 338.316 23.5651C337.379 25.0334 336.331 25.779 335.171 25.802C334.495 25.8154 333.911 25.5854 333.418 25.1119C332.923 24.5418 332.816 24.0124 333.097 23.5236C334.127 21.8602 334.627 20.2556 334.596 18.7099C334.575 17.6472 334.171 16.7854 333.385 16.1244C332.695 15.4616 331.529 15.1464 329.887 15.1789C328.631 15.2038 327.476 15.42 326.42 15.8275C322.678 17.1581 319.195 19.4499 315.974 22.7031C312.849 25.9543 309.974 29.6355 307.35 33.7467C304.82 37.7593 302.58 41.8145 300.632 45.9123C298.682 49.9134 297.061 53.4731 295.77 56.5914C298.562 56.0528 300.875 55.7171 302.708 55.5841C304.54 55.3545 306.42 55.124 308.348 54.8925C310.277 54.661 312.736 54.3706 315.725 54.0215L316.159 54.0128C317.319 53.9899 317.91 54.558 317.933 55.7173C317.944 56.297 317.81 56.8312 317.53 57.32C317.249 57.8088 316.82 58.1072 316.243 58.2153C310.941 58.9002 306.603 59.4694 303.229 59.9229C299.95 60.2778 296.77 60.7274 293.688 61.2717C290.475 69.8402 287.504 78.404 284.774 86.9629C282.044 95.5219 279.898 104.263 278.335 113.185C278.256 114.056 278.128 114.929 277.952 115.802C277.776 116.675 277.6 117.549 277.424 118.422C277.159 119.684 276.399 120.327 275.143 120.352ZM328.148 106.109C325.54 106.161 323.449 105.526 321.877 104.204C320.304 102.882 319.112 101.263 318.301 99.3459C317.585 97.3305 317.209 95.4534 317.175 93.7144C317.129 91.3958 317.513 88.8271 318.327 86.0082C319.139 83.0927 319.872 81.0969 320.528 80.0208C320.522 79.731 320.468 79.4421 320.366 79.1542C320.358 78.7678 320.351 78.4297 320.345 78.1398C320.294 75.5314 320.627 72.8187 321.344 70.0018C322.148 66.6998 323.635 63.6743 325.803 60.9253C327.97 58.0796 330.678 55.7548 333.928 53.9507C337.275 52.1448 340.929 51.2026 344.89 51.1241C349.527 51.0322 353.127 52.2173 355.688 54.6793C358.248 57.0448 359.567 60.208 359.645 64.1689C359.754 69.6756 358.834 74.4295 356.884 78.4307C355.03 82.4299 353.028 86.2871 350.879 90.0022C350.508 90.7828 350.182 91.4174 349.902 91.9062C349.622 92.395 349.916 92.6308 350.786 92.6135C353.588 92.558 356.318 91.3442 358.977 88.972C361.636 86.5998 364.979 82.1361 369.005 75.5811C369.285 75.0923 369.567 74.7001 369.851 74.4045C370.135 74.109 370.567 73.9554 371.147 73.9439L371.436 73.9382C372.499 73.9172 373.14 74.5327 373.358 75.7847C373.363 76.0746 373.274 76.4146 373.088 76.8049C370.757 81.1035 368.366 84.8234 365.916 87.9647C363.562 91.104 360.71 93.5283 357.362 95.2377C354.011 96.8504 349.776 97.7558 344.658 97.9539C342.668 99.9262 340.191 101.763 337.229 103.465C334.363 105.165 331.336 106.046 328.148 106.109ZM341.796 92.5017L343.245 92.473C345.226 90.0176 347.103 87.226 348.878 84.0981C350.748 80.9684 352.231 77.7497 353.325 74.442C354.418 71.0378 354.934 67.8382 354.875 64.8433C354.819 62.0417 354.048 59.6891 352.56 57.7857C351.071 55.7856 348.539 54.821 344.965 54.8918C342.549 54.9397 340.193 55.5179 337.895 56.6265C335.693 57.6367 333.784 58.8825 332.171 60.3642L332.617 60.9352C332.808 60.8348 333.097 60.7808 333.484 60.7731C334.063 60.7616 334.599 60.9926 335.092 61.4661C335.583 61.843 335.833 62.2729 335.842 62.7559C335.848 63.0458 335.805 63.2882 335.712 63.4834C335.619 63.6785 335.478 63.8746 335.289 64.0716C333.694 66.5194 332.145 68.8213 330.641 70.9773C329.138 73.1333 327.736 75.5772 326.438 78.3091C326.161 78.9911 325.836 79.674 325.463 80.3579C326.307 83.9171 328.154 86.8766 331.003 89.2363C333.947 91.4975 337.545 92.586 341.796 92.5017ZM328.937 102.035C330.869 101.996 332.79 101.378 334.699 100.181C336.607 98.8866 338.226 97.6947 339.557 96.6052C332.2 95.9778 326.726 92.8486 323.135 87.2177C323.052 87.8958 322.878 88.914 322.615 90.2723C322.352 91.6306 322.234 92.986 322.261 94.3385C322.299 96.2706 322.77 98.0493 323.672 99.6744C324.574 101.3 326.329 102.086 328.937 102.035ZM386.745 101.759C382.881 101.836 380.201 100.729 378.706 98.439C377.211 96.1491 376.431 93.3618 376.366 90.0771C376.293 86.406 376.789 82.1921 377.855 77.4353C379.017 72.6766 380.514 67.718 382.344 62.5594C384.272 57.399 386.442 52.3304 388.857 47.3536C391.271 42.3768 393.742 37.8337 396.27 33.7245C398.798 29.6153 401.195 26.2335 403.462 23.5791C405.447 21.3169 407.346 19.588 409.158 18.3923C411.066 17.0981 413.074 16.0435 415.184 15.2285C416.622 14.6202 418.065 14.3016 419.515 14.2729C421.447 14.2346 423.099 14.6851 424.47 15.6244C425.939 16.5618 426.695 18.1415 426.739 20.3635C426.781 22.4889 426.057 24.9677 424.567 27.8C423.074 30.5356 421.197 33.3272 418.934 36.1748C416.671 39.0224 414.355 41.6777 411.988 44.1408C409.621 46.6039 407.535 48.6265 405.73 50.2086C401.739 53.6703 397.89 56.9359 394.181 60.0054C390.471 62.9783 387.389 65.9871 384.937 69.0317C383.659 72.8262 382.669 76.5184 381.967 80.1082C381.263 83.6014 380.939 86.7489 380.994 89.5505C381.044 92.0623 381.52 94.1308 382.422 95.7559C383.421 97.3791 385.079 98.1678 387.398 98.1218C389.717 98.0759 391.924 97.3073 394.021 95.816C396.116 94.2282 398.106 92.2558 399.992 89.8989C401.975 87.5401 403.765 85.1852 405.361 82.834C406.488 81.1687 407.567 79.5527 408.599 77.9859C409.726 76.3206 410.618 74.9982 411.275 74.0187C411.648 73.3348 412.27 72.9842 413.139 72.967C414.202 72.9459 414.744 73.4667 414.765 74.5294C414.778 75.2057 414.505 76.0809 413.947 77.1551C412.826 79.1102 411.374 81.4585 409.592 84.1999C407.81 86.9413 405.786 89.6392 403.519 92.2936C401.252 94.9479 398.687 97.1733 395.823 98.9697C393.056 100.764 390.03 101.694 386.745 101.759ZM406.998 26.4084C404.918 28.7691 402.707 31.809 400.365 35.528C398.119 39.245 395.881 43.3485 393.65 47.8385C391.42 52.3284 389.383 56.8628 387.541 61.4417C390.577 58.5788 393.332 56.1564 395.805 54.1744C398.277 52.0959 400.747 49.9207 403.214 47.649C405.398 45.6728 407.718 43.2589 410.174 40.4075C412.725 37.4576 415.081 34.4149 417.242 31.2794C419.403 28.1439 420.892 25.2633 421.71 22.6377C421.979 21.5692 422.107 20.7452 422.096 20.1655C422.065 18.6198 421.277 17.8622 419.731 17.8929C419.345 17.9005 418.911 17.9574 418.43 18.0636C418.045 18.1679 417.613 18.3214 417.134 18.5242C415.409 19.2349 413.689 20.2354 411.975 21.5258C410.357 22.8143 408.698 24.4418 406.998 26.4084ZM441.151 41.3885C440.667 41.398 440.134 41.3119 439.551 41.1302C438.967 40.9485 438.669 40.5195 438.655 39.8432C438.646 39.3602 438.782 38.9226 439.064 38.5304C439.808 37.066 441.184 35.7823 443.192 34.6794C445.296 33.5746 446.88 33.0117 447.943 32.9906C448.426 32.981 448.96 33.1154 449.545 33.3938C450.129 33.5755 450.427 34.0045 450.441 34.6808C450.473 36.3231 449.488 37.8406 447.486 39.2333C445.581 40.6241 443.469 41.3425 441.151 41.3885ZM426.095 100.979C422.81 101.044 420.183 100.178 418.215 98.381C416.246 96.5838 415.229 94.0428 415.164 90.7581C415.126 88.8259 415.282 86.9382 415.632 85.095C415.98 83.1552 416.474 81.2608 417.114 79.4118C417.479 78.3415 418.218 76.5872 419.329 74.149C420.535 71.6123 421.933 68.9752 423.522 66.2376C425.108 63.4034 426.656 61.0049 428.163 59.0421C429.671 57.0793 431.004 56.0865 432.163 56.0635C432.646 56.0539 433.278 56.2347 434.059 56.6058C434.934 56.8784 435.378 57.3528 435.392 58.0291C435.399 58.4155 435.216 58.9024 434.841 59.4897C432.668 62.0456 430.409 65.0864 428.063 68.6121C425.716 72.1379 423.759 75.8009 422.192 79.6012C420.624 83.4014 419.875 87.0405 419.944 90.5184C420.032 94.9624 422.201 97.1423 426.452 97.0581C429.35 97.0007 432.221 95.5424 435.063 92.6833C438.003 89.8224 441.213 85.9895 444.693 81.1849C445.729 79.8113 446.621 78.4889 447.369 77.2177C448.212 75.848 448.962 74.6733 449.619 73.6939C450.282 73.0042 451 72.6517 451.773 72.6364C452.932 72.6134 453.52 73.0367 453.537 73.9062C453.558 74.9689 452.819 76.6748 451.319 79.024C449.819 81.3733 448.128 83.8229 446.246 86.373C442.57 91.0849 439.355 94.6762 436.601 97.1469C433.848 99.6176 430.345 100.895 426.095 100.979ZM466.879 103.361C464.271 103.412 462.18 102.777 460.608 101.455C459.035 100.133 457.844 98.514 457.032 96.5971C456.316 94.5818 455.941 92.7046 455.906 90.9656C455.86 88.647 456.244 86.0783 457.058 83.2594C457.87 80.3439 458.604 78.3482 459.259 77.2721C459.253 76.9822 459.199 76.6934 459.097 76.4055C459.089 76.019 459.082 75.6809 459.077 75.3911C459.025 72.7826 459.358 70.0699 460.075 67.253C460.88 63.9511 462.366 60.9256 464.534 58.1765C466.701 55.3308 469.409 53.006 472.66 51.202C476.006 49.396 479.66 48.4538 483.621 48.3753C488.258 48.2834 491.858 49.4685 494.419 51.9306C496.979 54.296 498.298 57.4592 498.377 61.4202C498.486 66.9268 497.565 71.6808 495.615 75.6819C493.761 79.6811 491.76 83.5383 489.61 87.2535C489.239 88.034 488.914 88.6687 488.633 89.1574C488.353 89.6462 488.648 89.882 489.517 89.8648C492.319 89.8093 495.049 88.5954 497.708 86.2232C500.367 83.851 503.71 79.3874 507.736 72.8323C508.016 72.3435 508.298 71.9513 508.582 71.6558C508.866 71.3602 509.298 71.2067 509.878 71.1952L510.168 71.1894C511.23 71.1684 511.871 71.7839 512.089 73.036C512.095 73.3258 512.005 73.6659 511.819 74.0561C509.488 78.3547 507.097 82.0747 504.647 85.2159C502.293 88.3552 499.442 90.7796 496.093 92.4889C492.742 94.1016 488.508 95.007 483.389 95.2051C481.399 97.1775 478.922 99.0145 475.96 100.716C473.094 102.416 470.067 103.297 466.879 103.361ZM480.527 89.753L481.976 89.7243C483.957 87.2688 485.835 84.4772 487.609 81.3494C489.48 78.2196 490.962 75.0009 492.057 71.6933C493.149 68.289 493.665 65.0894 493.606 62.0946C493.55 59.2929 492.779 56.9404 491.292 55.0369C489.802 53.0368 487.27 52.0722 483.696 52.143C481.281 52.1909 478.924 52.7691 476.627 53.8778C474.424 54.8879 472.516 56.1338 470.902 57.6154L471.348 58.1865C471.54 58.086 471.828 58.032 472.215 58.0243C472.794 58.0129 473.331 58.2439 473.823 58.7173C474.314 59.0942 474.564 59.5241 474.574 60.0072C474.579 60.297 474.536 60.5395 474.443 60.7346C474.35 60.9297 474.209 61.1258 474.02 61.3229C472.425 63.7706 470.876 66.0725 469.373 68.2285C467.869 70.3845 466.468 72.8285 465.169 75.5603C464.892 76.2423 464.568 76.9253 464.195 77.6092C465.038 81.1684 466.885 84.1278 469.734 86.4875C472.679 88.7487 476.276 89.8372 480.527 89.753ZM467.668 99.2858C469.601 99.2475 471.521 98.6296 473.431 97.432C475.338 96.1378 476.957 94.946 478.289 93.8565C470.931 93.2291 465.457 90.0999 461.866 84.4689C461.783 85.1471 461.61 86.1653 461.347 87.5235C461.084 88.8818 460.966 90.2372 460.992 91.5897C461.031 93.5219 461.501 95.3005 462.403 96.9256C463.305 98.5508 465.06 99.3375 467.668 99.2858Z" fill="url(#paint0_linear_15_20)"/>
<defs>
<linearGradient id="paint0_linear_15_20" x1="504.389" y1="-8.16112" x2="349.262" y2="285.708" gradientUnits="userSpaceOnUse">
<stop offset="0.0288461" stop-color="#F9820C" stop-opacity="0.81"/>
<stop offset="0.354486" stop-color="#F0B67E" stop-opacity="0.684517"/>
<stop offset="0.563583" stop-color="#F7DBBE" stop-opacity="0.842259"/>
<stop offset="0.782055" stop-color="white" stop-opacity="0.65"/>
<stop offset="0.930288" stop-color="white" stop-opacity="0.960565"/>
<stop offset="1" stop-color="white"/>
</linearGradient>
</defs>
</svg>
